<svg xmlns="http://www.w3.org/2000/svg" xmlns:xlink="http://www.w3.org/1999/xlink" version="1.1" class="marks" width="663" height="376" viewBox="0 0 663 376"><rect width="663" height="376" fill="white"/><g fill="none" stroke-miterlimit="10" transform="translate(58,10)"><g class="mark-group role-frame root" role="graphics-object" aria-roledescription="group mark container"><g transform="translate(0,0)"><path class="background" aria-hidden="true" d="M0.5,0.5h600v300h-600Z" stroke="#ddd"/><g><g class="mark-group role-axis" role="graphics-symbol" aria-roledescription="axis" aria-label="Y-axis for a linear scale with values from 0 to 45,000"><g transform="translate(0.5,0.5)"><path class="background" aria-hidden="true" d="M0,0h0v0h0Z" pointer-events="none"/><g><g class="mark-rule role-axis-grid" pointer-events="none"><line transform="translate(0,300)" x2="600" y2="0" stroke="#ddd" stroke-width="1" opacity="1"/><line transform="translate(0,267)" x2="600" y2="0" stroke="#ddd" stroke-width="1" opacity="1"/><line transform="translate(0,233)" x2="600" y2="0" stroke="#ddd" stroke-width="1" opacity="1"/><line transform="translate(0,200)" x2="600" y2="0" stroke="#ddd" stroke-width="1" opacity="1"/><line transform="translate(0,167)" x2="600" y2="0" stroke="#ddd" stroke-width="1" opacity="1"/><line transform="translate(0,133)" x2="600" y2="0" stroke="#ddd" stroke-width="1" opacity="1"/><line transform="translate(0,100)" x2="600" y2="0" stroke="#ddd" stroke-width="1" opacity="1"/><line transform="translate(0,67)" x2="600" y2="0" stroke="#ddd" stroke-width="1" opacity="1"/><line transform="translate(0,33)" x2="600" y2="0" stroke="#ddd" stroke-width="1" opacity="1"/><line transform="translate(0,0)" x2="600" y2="0" stroke="#ddd" stroke-width="1" opacity="1"/></g></g><path class="foreground" aria-hidden="true" d="" pointer-events="none" display="none"/></g></g><g class="mark-group role-axis" role="graphics-symbol" aria-roledescription="axis" aria-label="X-axis titled 'Time period start' for a discrete scale with 11 values: 1/1/2015, 7/1/2015, 1/1/2016, 7/1/2016, 1/1/2017, ending with 1/1/2020"><g transform="translate(0.5,300.5)"><path class="background" aria-hidden="true" d="M0,0h0v0h0Z" pointer-events="none"/><g><g class="mark-rule role-axis-tick" pointer-events="none"><line transform="translate(27,0)" x2="0" y2="5" stroke="#888" stroke-width="1" opacity="1"/><line transform="translate(81,0)" x2="0" y2="5" stroke="#888" stroke-width="1" opacity="1"/><line transform="translate(136,0)" x2="0" y2="5" stroke="#888" stroke-width="1" opacity="1"/><line transform="translate(190,0)" x2="0" y2="5" stroke="#888" stroke-width="1" opacity="1"/><line transform="translate(245,0)" x2="0" y2="5" stroke="#888" stroke-width="1" opacity="1"/><line transform="translate(300,0)" x2="0" y2="5" stroke="#888" stroke-width="1" opacity="1"/><line transform="translate(354,0)" x2="0" y2="5" stroke="#888" stroke-width="1" opacity="1"/><line transform="translate(409,0)" x2="0" y2="5" stroke="#888" stroke-width="1" opacity="1"/><line transform="translate(463,0)" x2="0" y2="5" stroke="#888" stroke-width="1" opacity="1"/><line transform="translate(518,0)" x2="0" y2="5" stroke="#888" stroke-width="1" opacity="1"/><line transform="translate(572,0)" x2="0" y2="5" stroke="#888" stroke-width="1" opacity="1"/></g><g class="mark-text role-axis-label" pointer-events="none"><text text-anchor="end" transform="translate(26.772727272727238,7) rotate(270) translate(0,3)" font-family="sans-serif" font-size="10px" fill="#000" opacity="1">1/1/2015</text><text text-anchor="end" transform="translate(81.31818181818178,7) rotate(270) translate(0,3)" font-family="sans-serif" font-size="10px" fill="#000" opacity="1">7/1/2015</text><text text-anchor="end" transform="translate(135.86363636363632,7) rotate(270) translate(0,3)" font-family="sans-serif" font-size="10px" fill="#000" opacity="1">1/1/2016</text><text text-anchor="end" transform="translate(190.40909090909088,7) rotate(270) translate(0,3)" font-family="sans-serif" font-size="10px" fill="#000" opacity="1">7/1/2016</text><text text-anchor="end" transform="translate(244.95454545454544,7) rotate(270) translate(0,3)" font-family="sans-serif" font-size="10px" fill="#000" opacity="1">1/1/2017</text><text text-anchor="end" transform="translate(299.5,7) rotate(270) translate(0,3)" font-family="sans-serif" font-size="10px" fill="#000" opacity="1">7/1/2017</text><text text-anchor="end" transform="translate(354.0454545454545,7) rotate(270) translate(0,3)" font-family="sans-serif" font-size="10px" fill="#000" opacity="1">1/1/2018</text><text text-anchor="end" transform="translate(408.59090909090907,7) rotate(270) translate(0,3)" font-family="sans-serif" font-size="10px" fill="#000" opacity="1">7/1/2018</text><text text-anchor="end" transform="translate(463.1363636363636,7) rotate(270) translate(0,3)" font-family="sans-serif" font-size="10px" fill="#000" opacity="1">1/1/2019</text><text text-anchor="end" transform="translate(517.6818181818181,7) rotate(270) translate(0,3)" font-family="sans-serif" font-size="10px" fill="#000" opacity="1">7/1/2019</text><text text-anchor="end" transform="translate(572.2272727272727,7) rotate(270) translate(0,3)" font-family="sans-serif" font-size="10px" fill="#000" opacity="1">1/1/2020</text></g><g class="mark-rule role-axis-domain" pointer-events="none"><line transform="translate(0,0)" x2="600" y2="0" stroke="#888" stroke-width="1" opacity="1"/></g><g class="mark-text role-axis-title" pointer-events="none"><text text-anchor="middle" transform="translate(300,58.92578125)" font-family="sans-serif" font-size="11px" font-weight="bold" fill="#000" opacity="1">Time period start</text></g></g><path class="foreground" aria-hidden="true" d="" pointer-events="none" display="none"/></g></g><g class="mark-group role-axis" role="graphics-symbol" aria-roledescription="axis" aria-label="Y-axis titled 'Combined requests' for a linear scale with values from 0 to 45,000"><g transform="translate(0.5,0.5)"><path class="background" aria-hidden="true" d="M0,0h0v0h0Z" pointer-events="none"/><g><g class="mark-rule role-axis-tick" pointer-events="none"><line transform="translate(0,300)" x2="-5" y2="0" stroke="#888" stroke-width="1" opacity="1"/><line transform="translate(0,267)" x2="-5" y2="0" stroke="#888" stroke-width="1" opacity="1"/><line transform="translate(0,233)" x2="-5" y2="0" stroke="#888" stroke-width="1" opacity="1"/><line transform="translate(0,200)" x2="-5" y2="0" stroke="#888" stroke-width="1" opacity="1"/><line transform="translate(0,167)" x2="-5" y2="0" stroke="#888" stroke-width="1" opacity="1"/><line transform="translate(0,133)" x2="-5" y2="0" stroke="#888" stroke-width="1" opacity="1"/><line transform="translate(0,100)" x2="-5" y2="0" stroke="#888" stroke-width="1" opacity="1"/><line transform="translate(0,67)" x2="-5" y2="0" stroke="#888" stroke-width="1" opacity="1"/><line transform="translate(0,33)" x2="-5" y2="0" stroke="#888" stroke-width="1" opacity="1"/><line transform="translate(0,0)" x2="-5" y2="0" stroke="#888" stroke-width="1" opacity="1"/></g><g class="mark-text role-axis-label" pointer-events="none"><text text-anchor="end" transform="translate(-7,303)" font-family="sans-serif" font-size="10px" fill="#000" opacity="1">0</text><text text-anchor="end" transform="translate(-7,269.66666666666663)" font-family="sans-serif" font-size="10px" fill="#000" opacity="1">5,000</text><text text-anchor="end" transform="translate(-7,236.33333333333334)" font-family="sans-serif" font-size="10px" fill="#000" opacity="1">10,000</text><text text-anchor="end" transform="translate(-7,203.00000000000003)" font-family="sans-serif" font-size="10px" fill="#000" opacity="1">15,000</text><text text-anchor="end" transform="translate(-7,169.66666666666669)" font-family="sans-serif" font-size="10px" fill="#000" opacity="1">20,000</text><text text-anchor="end" transform="translate(-7,136.33333333333331)" font-family="sans-serif" font-size="10px" fill="#000" opacity="1">25,000</text><text text-anchor="end" transform="translate(-7,103.00000000000001)" font-family="sans-serif" font-size="10px" fill="#000" opacity="1">30,000</text><text text-anchor="end" transform="translate(-7,69.66666666666666)" font-family="sans-serif" font-size="10px" fill="#000" opacity="1">35,000</text><text text-anchor="end" transform="translate(-7,36.33333333333335)" font-family="sans-serif" font-size="10px" fill="#000" opacity="1">40,000</text><text text-anchor="end" transform="translate(-7,3)" font-family="sans-serif" font-size="10px" fill="#000" opacity="1">45,000</text></g><g class="mark-rule role-axis-domain" pointer-events="none"><line transform="translate(0,300)" x2="0" y2="-300" stroke="#888" stroke-width="1" opacity="1"/></g><g class="mark-text role-axis-title" pointer-events="none"><text text-anchor="middle" transform="translate(-41.5859375,150) rotate(-90) translate(0,-2)" font-family="sans-serif" font-size="11px" font-weight="bold" fill="#000" opacity="1">Combined requests</text></g></g><path class="foreground" aria-hidden="true" d="" pointer-events="none" display="none"/></g></g><g class="mark-rect role-mark marks" role="graphics-symbol" aria-roledescription="rect mark container"><path d="M547.7272727272727,18.533333333333346h50v0.046666666666638434h-50Z" fill="#7570b3"/><path d="M547.7272727272727,18.579999999999984h50v0.04000000000003112h-50Z" fill="#e7298a"/><path d="M547.7272727272727,18.620000000000015h50v0.00666666666664284h-50Z" fill="#66a61e"/><path d="M547.7272727272727,18.626666666666658h50v0.006666666666678367h-50Z" fill="#1b9e77"/><path d="M547.7272727272727,18.633333333333336h50v0.726666666666663h-50Z" fill="#7570b3"/><path d="M547.7272727272727,19.36h50v0.10666666666666558h-50Z" fill="#66a61e"/><path d="M547.7272727272727,19.466666666666665h50v0.686666666666671h-50Z" fill="#a6761d"/><path d="M547.7272727272727,20.153333333333336h50v0.11999999999998323h-50Z" fill="#666666"/><path d="M547.7272727272727,20.27333333333332h50v0.006666666666678367h-50Z" fill="#e7298a"/><path d="M547.7272727272727,20.279999999999998h50v0.013333333333321207h-50Z" fill="#e6ab02"/><path d="M547.7272727272727,20.29333333333332h50v0.006666666666678367h-50Z" fill="#a6761d"/><path d="M547.7272727272727,20.299999999999997h50v0.01999999999999602h-50Z" fill="#d95f02"/><path d="M547.7272727272727,20.319999999999993h50v1.8466666666666747h-50Z" fill="#7570b3"/><path d="M547.7272727272727,22.166666666666668h50v0.3000000000000007h-50Z" fill="#66a61e"/><path d="M547.7272727272727,22.46666666666667h50v0.026666666666674388h-50Z" fill="#e6ab02"/><path d="M547.7272727272727,22.493333333333343h50v0.026666666666642413h-50Z" fill="#666666"/><path d="M547.7272727272727,22.519999999999985h50v0.013333333333353181h-50Z" fill="#1b9e77"/><path d="M547.7272727272727,22.53333333333334h50v18.479999999999997h-50Z" fill="#d95f02"/><path d="M547.7272727272727,41.013333333333335h50v0.8266666666666538h-50Z" fill="#7570b3"/><path d="M547.7272727272727,41.83999999999999h50v0.03999999999999204h-50Z" fill="#66a61e"/><path d="M547.7272727272727,41.87999999999998h50v0.020000000000031548h-50Z" fill="#e6ab02"/><path d="M547.7272727272727,41.90000000000001h50v0.013333333333321207h-50Z" fill="#a6761d"/><path d="M547.7272727272727,41.913333333333334h50v0.05999999999999517h-50Z" fill="#666666"/><path d="M547.7272727272727,41.97333333333333h50v0.013333333333356734h-50Z" fill="#1b9e77"/><path d="M547.7272727272727,41.986666666666686h50v132.82666666666668h-50Z" fill="#d95f02"/><path d="M547.7272727272727,174.81333333333336h50v0.006666666666632182h-50Z" fill="#7570b3"/><path d="M547.7272727272727,174.82h50v0.006666666666689025h-50Z" fill="#a6761d"/><path d="M547.7272727272727,174.82666666666668h50v0h-50Z" fill="#666666"/><path d="M547.7272727272727,174.82666666666668h50v0.2733333333333121h-50Z" fill="#66a61e"/><path d="M547.7272727272727,175.1h50v0.006666666666689025h-50Z" fill="#e6ab02"/><path d="M547.7272727272727,175.10666666666668h50v0.7866666666666617h-50Z" fill="#a6761d"/><path d="M547.7272727272727,175.89333333333335h50v0.013333333333321207h-50Z" fill="#666666"/><path d="M547.7272727272727,175.90666666666667h50v0.03333333333333144h-50Z" fill="#1b9e77"/><path d="M547.7272727272727,175.94h50v0.026666666666642413h-50Z" fill="#d95f02"/><path d="M547.7272727272727,175.96666666666664h50v0.020000000000010232h-50Z" fill="#7570b3"/><path d="M547.7272727272727,175.98666666666665h50v1.606666666666655h-50Z" fill="#e6ab02"/><path d="M547.7272727272727,177.5933333333333h50v0.006666666666717447h-50Z" fill="#a6761d"/><path d="M547.7272727272727,177.60000000000002h50v0.006666666666632182h-50Z" fill="#666666"/><path d="M547.7272727272727,177.60666666666665h50v0.0666666666666913h-50Z" fill="#d95f02"/><path d="M547.7272727272727,177.67333333333335h50v0.046666666666652645h-50Z" fill="#7570b3"/><path d="M547.7272727272727,177.72h50v0.006666666666660603h-50Z" fill="#66a61e"/><path d="M547.7272727272727,177.72666666666666h50v59.660000000000025h-50Z" fill="#e6ab02"/><path d="M547.7272727272727,237.38666666666668h50v0.006666666666632182h-50Z" fill="#a6761d"/><path d="M547.7272727272727,237.39333333333332h50v0.1466666666667038h-50Z" fill="#666666"/><path d="M547.7272727272727,237.54000000000002h50v29.599999999999966h-50Z" fill="#e7298a"/><path d="M547.7272727272727,267.14h50v0.040000000000020464h-50Z" fill="#66a61e"/><path d="M547.7272727272727,267.18h50v0.006666666666660603h-50Z" fill="#e6ab02"/><path d="M547.7272727272727,267.18666666666667h50v0.15333333333330756h-50Z" fill="#1b9e77"/><path d="M547.7272727272727,267.34h50v0.04666666666668107h-50Z" fill="#d95f02"/><path d="M547.7272727272727,267.38666666666666h50v28.83333333333337h-50Z" fill="#7570b3"/><path d="M547.7272727272727,296.22h50v0.006666666666660603h-50Z" fill="#e7298a"/><path d="M547.7272727272727,296.2266666666667h50v1.3133333333333326h-50Z" fill="#66a61e"/><path d="M547.7272727272727,297.54h50v0.47333333333330074h-50Z" fill="#e6ab02"/><path d="M547.7272727272727,298.0133333333333h50v1.9866666666666788h-50Z" fill="#a6761d"/><path d="M493.18181818181813,116.41333333333333h50v0.05999999999998806h-50Z" fill="#7570b3"/><path d="M493.18181818181813,116.47333333333331h50v0.026666666666670835h-50Z" fill="#e7298a"/><path d="M493.18181818181813,116.49999999999999h50v0h-50Z" fill="#66a61e"/><path d="M493.18181818181813,116.49999999999999h50v0.020000000000010232h-50Z" fill="#a6761d"/><path d="M493.18181818181813,116.52h50v0.006666666666674814h-50Z" fill="#1b9e77"/><path d="M493.18181818181813,116.52666666666667h50v0.006666666666674814h-50Z" fill="#d95f02"/><path d="M493.18181818181813,116.53333333333335h50v0.21999999999997044h-50Z" fill="#7570b3"/><path d="M493.18181818181813,116.75333333333332h50v0.10666666666666913h-50Z" fill="#66a61e"/><path d="M493.18181818181813,116.85999999999999h50v0.006666666666674814h-50Z" fill="#e6ab02"/><path d="M493.18181818181813,116.86666666666666h50v0.7933333333333366h-50Z" fill="#a6761d"/><path d="M493.18181818181813,117.66h50v1.106666666666655h-50Z" fill="#666666"/><path d="M493.18181818181813,118.76666666666665h50v0.006666666666674814h-50Z" fill="#d95f02"/><path d="M493.18181818181813,118.77333333333333h50v0.013333333333321207h-50Z" fill="#66a61e"/><path d="M493.18181818181813,118.78666666666665h50v0.006666666666674814h-50Z" fill="#e6ab02"/><path d="M493.18181818181813,118.79333333333332h50v0.006666666666689025h-50Z" fill="#666666"/><path d="M493.18181818181813,118.80000000000001h50v0.006666666666674814h-50Z" fill="#1b9e77"/><path d="M493.18181818181813,118.80666666666669h50v2.8066666666666293h-50Z" fill="#7570b3"/><path d="M493.18181818181813,121.61333333333332h50v0.2333333333333627h-50Z" fill="#66a61e"/><path d="M493.18181818181813,121.84666666666668h50v0.0066666666666463925h-50Z" fill="#e6ab02"/><path d="M493.18181818181813,121.85333333333332h50v0.026666666666670835h-50Z" fill="#666666"/><path d="M493.18181818181813,121.88h50v5.2133333333333525h-50Z" fill="#d95f02"/><path d="M493.18181818181813,127.09333333333335h50v0.46666666666665435h-50Z" fill="#7570b3"/><path d="M493.18181818181813,127.56h50v0.0066666666666463925h-50Z" fill="#e7298a"/><path d="M493.18181818181813,127.56666666666665h50v0.006666666666674814h-50Z" fill="#66a61e"/><path d="M493.18181818181813,127.57333333333332h50v0.0799999999999983h-50Z" fill="#e6ab02"/><path d="M493.18181818181813,127.65333333333332h50v0.040000000000020464h-50Z" fill="#a6761d"/><path d="M493.18181818181813,127.69333333333334h50v0.0933333333333195h-50Z" fill="#666666"/><path d="M493.18181818181813,127.78666666666666h50v83.3066666666667h-50Z" fill="#d95f02"/><path d="M493.18181818181813,211.09333333333336h50v0.026666666666642413h-50Z" fill="#e6ab02"/><path d="M493.18181818181813,211.12h50v0h-50Z" fill="#666666"/><path d="M493.18181818181813,211.12h50v0.013333333333349628h-50Z" fill="#1b9e77"/><path d="M493.18181818181813,211.13333333333335h50v0.16666666666662877h-50Z" fill="#66a61e"/><path d="M493.18181818181813,211.29999999999998h50v0.013333333333349628h-50Z" fill="#e6ab02"/><path d="M493.18181818181813,211.31333333333333h50v0.13999999999998636h-50Z" fill="#a6761d"/><path d="M493.18181818181813,211.45333333333332h50v0.006666666666660603h-50Z" fill="#666666"/><path d="M493.18181818181813,211.45999999999998h50v0.026666666666699257h-50Z" fill="#1b9e77"/><path d="M493.18181818181813,211.48666666666668h50v0.10666666666665492h-50Z" fill="#d95f02"/><path d="M493.18181818181813,211.59333333333333h50v0.026666666666670835h-50Z" fill="#7570b3"/><path d="M493.18181818181813,211.62h50v1.4599999999999795h-50Z" fill="#e6ab02"/><path d="M493.18181818181813,213.07999999999998h50v0.006666666666717447h-50Z" fill="#1b9e77"/><path d="M493.18181818181813,213.0866666666667h50v0.01999999999998181h-50Z" fill="#d95f02"/><path d="M493.18181818181813,213.10666666666668h50v0.046666666666652645h-50Z" fill="#7570b3"/><path d="M493.18181818181813,213.15333333333334h50v40.71333333333334h-50Z" fill="#e6ab02"/><path d="M493.18181818181813,253.86666666666667h50v0.013333333333349628h-50Z" fill="#a6761d"/><path d="M493.18181818181813,253.88000000000002h50v0.05999999999997385h-50Z" fill="#666666"/><path d="M493.18181818181813,253.94h50v0.006666666666660603h-50Z" fill="#1b9e77"/><path d="M493.18181818181813,253.94666666666666h50v9.073333333333323h-50Z" fill="#e7298a"/><path d="M493.18181818181813,263.02h50v0.060000000000002274h-50Z" fill="#66a61e"/><path d="M493.18181818181813,263.08h50v0h-50Z" fill="#a6761d"/><path d="M493.18181818181813,263.08h50v0.006666666666717447h-50Z" fill="#d95f02"/><path d="M493.18181818181813,263.0866666666667h50v34.63333333333327h-50Z" fill="#7570b3"/><path d="M493.18181818181813,297.71999999999997h50v1.4600000000000364h-50Z" fill="#66a61e"/><path d="M493.18181818181813,299.18h50v0.23333333333329165h-50Z" fill="#e6ab02"/><path d="M493.18181818181813,299.4133333333333h50v0.5866666666667015h-50Z" fill="#a6761d"/><path d="M438.6363636363636,174.98h50v0.006666666666689025h-50Z" fill="#d95f02"/><path d="M438.6363636363636,174.98666666666668h50v0.006666666666660603h-50Z" fill="#7570b3"/><path d="M438.6363636363636,174.99333333333334h50v0.03333333333335986h-50Z" fill="#e7298a"/><path d="M438.6363636363636,175.0266666666667h50v0.01999999999998181h-50Z" fill="#66a61e"/><path d="M438.6363636363636,175.04666666666668h50v0.013333333333321207h-50Z" fill="#e6ab02"/><path d="M438.6363636363636,175.06h50v0.5199999999999818h-50Z" fill="#7570b3"/><path d="M438.6363636363636,175.57999999999998h50v0.0800000000000125h-50Z" fill="#66a61e"/><path d="M438.6363636363636,175.66h50v0.04666666666668107h-50Z" fill="#666666"/><path d="M438.6363636363636,175.70666666666668h50v0.006666666666632182h-50Z" fill="#e7298a"/><path d="M438.6363636363636,175.7133333333333h50v0.006666666666689025h-50Z" fill="#66a61e"/><path d="M438.6363636363636,175.72h50v2.3466666666666924h-50Z" fill="#7570b3"/><path d="M438.6363636363636,178.0666666666667h50v0.29333333333332234h-50Z" fill="#66a61e"/><path d="M438.6363636363636,178.36h50v0.03333333333330302h-50Z" fill="#e6ab02"/><path d="M438.6363636363636,178.39333333333332h50v3.3600000000000136h-50Z" fill="#d95f02"/><path d="M438.6363636363636,181.75333333333333h50v1.1866666666666674h-50Z" fill="#7570b3"/><path d="M438.6363636363636,182.94h50v0.026666666666670835h-50Z" fill="#e7298a"/><path d="M438.6363636363636,182.96666666666667h50v0.006666666666660603h-50Z" fill="#66a61e"/><path d="M438.6363636363636,182.97333333333333h50v0.08666666666670153h-50Z" fill="#e6ab02"/><path d="M438.6363636363636,183.06000000000003h50v0.08666666666661627h-50Z" fill="#a6761d"/><path d="M438.6363636363636,183.14666666666665h50v0.04666666666668107h-50Z" fill="#666666"/><path d="M438.6363636363636,183.19333333333333h50v34.29333333333335h-50Z" fill="#d95f02"/><path d="M438.6363636363636,217.48666666666668h50v0.006666666666632182h-50Z" fill="#7570b3"/><path d="M438.6363636363636,217.4933333333333h50v0.013333333333349628h-50Z" fill="#e6ab02"/><path d="M438.6363636363636,217.50666666666666h50v0.006666666666660603h-50Z" fill="#e7298a"/><path d="M438.6363636363636,217.51333333333332h50v0.08666666666670153h-50Z" fill="#66a61e"/><path d="M438.6363636363636,217.60000000000002h50v0.14666666666661854h-50Z" fill="#a6761d"/><path d="M438.6363636363636,217.74666666666664h50v0.006666666666717447h-50Z" fill="#666666"/><path d="M438.6363636363636,217.75333333333336h50v0.006666666666632182h-50Z" fill="#1b9e77"/><path d="M438.6363636363636,217.76h50v0.006666666666660603h-50Z" fill="#d95f02"/><path d="M438.6363636363636,217.76666666666665h50v0.006666666666689025h-50Z" fill="#66a61e"/><path d="M438.6363636363636,217.77333333333334h50v1.8200000000000216h-50Z" fill="#e6ab02"/><path d="M438.6363636363636,219.59333333333336h50v0.026666666666642413h-50Z" fill="#a6761d"/><path d="M438.6363636363636,219.62h50v0.01999999999998181h-50Z" fill="#d95f02"/><path d="M438.6363636363636,219.64h50v0.06666666666666288h-50Z" fill="#7570b3"/><path d="M438.6363636363636,219.70666666666665h50v0.026666666666699257h-50Z" fill="#66a61e"/><path d="M438.6363636363636,219.73333333333335h50v25.399999999999977h-50Z" fill="#e6ab02"/><path d="M438.6363636363636,245.13333333333333h50v0.006666666666660603h-50Z" fill="#a6761d"/><path d="M438.6363636363636,245.14h50v0.013333333333349628h-50Z" fill="#666666"/><path d="M438.6363636363636,245.15333333333334h50v0.013333333333321207h-50Z" fill="#1b9e77"/><path d="M438.6363636363636,245.16666666666666h50v0.026666666666670835h-50Z" fill="#7570b3"/><path d="M438.6363636363636,245.19333333333333h50v11.133333333333326h-50Z" fill="#e7298a"/><path d="M438.6363636363636,256.32666666666665h50v0.03333333333335986h-50Z" fill="#66a61e"/><path d="M438.6363636363636,256.36h50v0.006666666666660603h-50Z" fill="#666666"/><path d="M438.6363636363636,256.3666666666667h50v40.48666666666668h-50Z" fill="#7570b3"/><path d="M438.6363636363636,296.85333333333335h50v0.006666666666660603h-50Z" fill="#e7298a"/><path d="M438.6363636363636,296.86h50v1.5733333333333235h-50Z" fill="#66a61e"/><path d="M438.6363636363636,298.43333333333334h50v0.4266666666666765h-50Z" fill="#e6ab02"/><path d="M438.6363636363636,298.86h50v1.1333333333333258h-50Z" fill="#a6761d"/><path d="M438.6363636363636,299.99333333333334h50v0.006666666666660603h-50Z" fill="#666666"/><path d="M438.6363636363636,300h50v0h-50Z" fill="#7570b3"/><path d="M384.09090909090907,225.20000000000002h50v0.01999999999998181h-50Z" fill="#7570b3"/><path d="M384.09090909090907,225.22h50v0.09333333333333371h-50Z" fill="#e7298a"/><path d="M384.09090909090907,225.31333333333333h50v0.013333333333349628h-50Z" fill="#66a61e"/><path d="M384.09090909090907,225.32666666666668h50v0.7933333333333223h-50Z" fill="#7570b3"/><path d="M384.09090909090907,226.12h50v0.006666666666660603h-50Z" fill="#e7298a"/><path d="M384.09090909090907,226.12666666666667h50v0.03999999999999204h-50Z" fill="#66a61e"/><path d="M384.09090909090907,226.16666666666666h50v0.026666666666670835h-50Z" fill="#666666"/><path d="M384.09090909090907,226.19333333333333h50v0.013333333333349628h-50Z" fill="#d95f02"/><path d="M384.09090909090907,226.20666666666668h50v0.013333333333321207h-50Z" fill="#7570b3"/><path d="M384.09090909090907,226.22h50v0.026666666666670835h-50Z" fill="#e7298a"/><path d="M384.09090909090907,226.24666666666667h50v0.006666666666689025h-50Z" fill="#66a61e"/><path d="M384.09090909090907,226.25333333333336h50v0.026666666666642413h-50Z" fill="#e6ab02"/><path d="M384.09090909090907,226.28h50v0.7333333333333201h-50Z" fill="#7570b3"/><path d="M384.09090909090907,227.01333333333332h50v0.28000000000000114h-50Z" fill="#66a61e"/><path d="M384.09090909090907,227.29333333333332h50v0.006666666666689025h-50Z" fill="#e6ab02"/><path d="M384.09090909090907,227.3h50v0.013333333333321207h-50Z" fill="#666666"/><path d="M384.09090909090907,227.31333333333333h50v4.446666666666658h-50Z" fill="#d95f02"/><path d="M384.09090909090907,231.76h50v2.1800000000000352h-50Z" fill="#7570b3"/><path d="M384.09090909090907,233.94000000000003h50v0.05333333333331325h-50Z" fill="#e6ab02"/><path d="M384.09090909090907,233.99333333333334h50v0.013333333333321207h-50Z" fill="#a6761d"/><path d="M384.09090909090907,234.00666666666666h50v0.03999999999999204h-50Z" fill="#666666"/><path d="M384.09090909090907,234.04666666666665h50v4.526666666666671h-50Z" fill="#d95f02"/><path d="M384.09090909090907,238.57333333333332h50v0.020000000000010232h-50Z" fill="#e6ab02"/><path d="M384.09090909090907,238.59333333333333h50v0.12666666666666515h-50Z" fill="#a6761d"/><path d="M384.09090909090907,238.72h50v0.006666666666660603h-50Z" fill="#7570b3"/><path d="M384.09090909090907,238.72666666666666h50v0.05333333333334167h-50Z" fill="#66a61e"/><path d="M384.09090909090907,238.78h50v0.12000000000000455h-50Z" fill="#a6761d"/><path d="M384.09090909090907,238.9h50v0.01999999999998181h-50Z" fill="#1b9e77"/><path d="M384.09090909090907,238.92h50v0.020000000000010232h-50Z" fill="#d95f02"/><path d="M384.09090909090907,238.94h50v0.013333333333349628h-50Z" fill="#66a61e"/><path d="M384.09090909090907,238.95333333333335h50v1.2866666666666333h-50Z" fill="#e6ab02"/><path d="M384.09090909090907,240.23999999999998h50v0.22000000000002728h-50Z" fill="#a6761d"/><path d="M384.09090909090907,240.46h50v0.006666666666660603h-50Z" fill="#d95f02"/><path d="M384.09090909090907,240.46666666666667h50v0.020000000000010232h-50Z" fill="#7570b3"/><path d="M384.09090909090907,240.48666666666668h50v0.01999999999998181h-50Z" fill="#66a61e"/><path d="M384.09090909090907,240.50666666666666h50v22.29333333333335h-50Z" fill="#e6ab02"/><path d="M384.09090909090907,262.8h50v0.03999999999996362h-50Z" fill="#a6761d"/><path d="M384.09090909090907,262.84h50v0.006666666666717447h-50Z" fill="#d95f02"/><path d="M384.09090909090907,262.8466666666667h50v2.0399999999999636h-50Z" fill="#e7298a"/><path d="M384.09090909090907,264.88666666666666h50v0.06666666666671972h-50Z" fill="#66a61e"/><path d="M384.09090909090907,264.9533333333334h50v0.00666666666660376h-50Z" fill="#d95f02"/><path d="M384.09090909090907,264.96h50v33.42666666666668h-50Z" fill="#7570b3"/><path d="M384.09090909090907,298.38666666666666h50v0.006666666666660603h-50Z" fill="#e7298a"/><path d="M384.09090909090907,298.3933333333333h50v0.7466666666666697h-50Z" fill="#66a61e"/><path d="M384.09090909090907,299.14h50v0.30666666666667197h-50Z" fill="#e6ab02"/><path d="M384.09090909090907,299.44666666666666h50v0.5533333333333417h-50Z" fill="#a6761d"/><path d="M384.09090909090907,300h50v0h-50Z" fill="#7570b3"/><path d="M329.5454545454545,218.37333333333336h50v0.06666666666663446h-50Z" fill="#7570b3"/><path d="M329.5454545454545,218.44h50v0.046666666666652645h-50Z" fill="#e7298a"/><path d="M329.5454545454545,218.48666666666665h50v0.006666666666689025h-50Z" fill="#66a61e"/><path d="M329.5454545454545,218.49333333333334h50v0.006666666666632182h-50Z" fill="#e6ab02"/><path d="M329.5454545454545,218.49999999999997h50v0.01333333333337805h-50Z" fill="#a6761d"/><path d="M329.5454545454545,218.51333333333335h50v0.28000000000000114h-50Z" fill="#7570b3"/><path d="M329.5454545454545,218.79333333333335h50v0.05333333333331325h-50Z" fill="#66a61e"/><path d="M329.5454545454545,218.84666666666666h50v0.013333333333349628h-50Z" fill="#666666"/><path d="M329.5454545454545,218.86h50v0.01999999999998181h-50Z" fill="#66a61e"/><path d="M329.5454545454545,218.88h50v0.026666666666642413h-50Z" fill="#e6ab02"/><path d="M329.5454545454545,218.90666666666664h50v0.8866666666666845h-50Z" fill="#7570b3"/><path d="M329.5454545454545,219.79333333333332h50v0.22000000000002728h-50Z" fill="#66a61e"/><path d="M329.5454545454545,220.01333333333335h50v0.006666666666660603h-50Z" fill="#e6ab02"/><path d="M329.5454545454545,220.02h50v1.6399999999999864h-50Z" fill="#d95f02"/><path d="M329.5454545454545,221.66h50v1.259999999999991h-50Z" fill="#7570b3"/><path d="M329.5454545454545,222.92h50v0.07333333333332348h-50Z" fill="#e6ab02"/><path d="M329.5454545454545,222.9933333333333h50v0.020000000000038654h-50Z" fill="#a6761d"/><path d="M329.5454545454545,223.01333333333335h50v0.03999999999999204h-50Z" fill="#666666"/><path d="M329.5454545454545,223.05333333333334h50v1.306666666666672h-50Z" fill="#d95f02"/><path d="M329.5454545454545,224.36h50v0.013333333333349628h-50Z" fill="#e7298a"/><path d="M329.5454545454545,224.37333333333336h50v0.01999999999998181h-50Z" fill="#e6ab02"/><path d="M329.5454545454545,224.39333333333335h50v0.020000000000010232h-50Z" fill="#1b9e77"/><path d="M329.5454545454545,224.41333333333336h50v0.07999999999998408h-50Z" fill="#66a61e"/><path d="M329.5454545454545,224.49333333333334h50v0.013333333333321207h-50Z" fill="#a6761d"/><path d="M329.5454545454545,224.50666666666666h50v0.020000000000010232h-50Z" fill="#d95f02"/><path d="M329.5454545454545,224.52666666666667h50v0.01999999999998181h-50Z" fill="#66a61e"/><path d="M329.5454545454545,224.54666666666665h50v1.6200000000000045h-50Z" fill="#e6ab02"/><path d="M329.5454545454545,226.16666666666666h50v0.026666666666670835h-50Z" fill="#a6761d"/><path d="M329.5454545454545,226.19333333333333h50v0.01999999999998181h-50Z" fill="#7570b3"/><path d="M329.5454545454545,226.2133333333333h50v10.940000000000026h-50Z" fill="#e6ab02"/><path d="M329.5454545454545,237.15333333333334h50v0.05333333333334167h-50Z" fill="#a6761d"/><path d="M329.5454545454545,237.20666666666668h50v0.013333333333321207h-50Z" fill="#1b9e77"/><path d="M329.5454545454545,237.22h50v0.9533333333333474h-50Z" fill="#e7298a"/><path d="M329.5454545454545,238.17333333333335h50v0.06666666666666288h-50Z" fill="#66a61e"/><path d="M329.5454545454545,238.24h50v59.920000000000016h-50Z" fill="#7570b3"/><path d="M329.5454545454545,298.16h50v0.7399999999999523h-50Z" fill="#66a61e"/><path d="M329.5454545454545,298.9h50v0.44000000000005457h-50Z" fill="#e6ab02"/><path d="M329.5454545454545,299.34000000000003h50v0.6599999999999682h-50Z" fill="#a6761d"/><path d="M329.5454545454545,300h50v0h-50Z" fill="#7570b3"/><path d="M275,255.66000000000003h50v0.013333333333321207h-50Z" fill="#7570b3"/><path d="M275,255.67333333333335h50v0.026666666666670835h-50Z" fill="#e7298a"/><path d="M275,255.70000000000002h50v0.006666666666632182h-50Z" fill="#66a61e"/><path d="M275,255.70666666666665h50v0.020000000000010232h-50Z" fill="#1b9e77"/><path d="M275,255.72666666666666h50v0.28000000000000114h-50Z" fill="#7570b3"/><path d="M275,256.00666666666666h50v0.04666666666668107h-50Z" fill="#66a61e"/><path d="M275,256.05333333333334h50v0.013333333333321207h-50Z" fill="#666666"/><path d="M275,256.06666666666666h50v0.026666666666642413h-50Z" fill="#e6ab02"/><path d="M275,256.0933333333333h50v0.01333333333337805h-50Z" fill="#d95f02"/><path d="M275,256.1066666666667h50v0.5466666666666242h-50Z" fill="#7570b3"/><path d="M275,256.6533333333333h50v0.22000000000002728h-50Z" fill="#66a61e"/><path d="M275,256.87333333333333h50v0.006666666666660603h-50Z" fill="#e6ab02"/><path d="M275,256.88h50v0.9599999999999795h-50Z" fill="#d95f02"/><path d="M275,257.84h50v0.4333333333333371h-50Z" fill="#7570b3"/><path d="M275,258.2733333333333h50v0.006666666666660603h-50Z" fill="#66a61e"/><path d="M275,258.28h50v0.060000000000002274h-50Z" fill="#e6ab02"/><path d="M275,258.34h50v0.03333333333335986h-50Z" fill="#a6761d"/><path d="M275,258.37333333333333h50v0.060000000000002274h-50Z" fill="#666666"/><path d="M275,258.43333333333334h50v1.0933333333333621h-50Z" fill="#d95f02"/><path d="M275,259.5266666666667h50v0.05333333333328483h-50Z" fill="#e6ab02"/><path d="M275,259.58h50v0.006666666666660603h-50Z" fill="#d95f02"/><path d="M275,259.58666666666664h50v0.08666666666670153h-50Z" fill="#66a61e"/><path d="M275,259.67333333333335h50v0.006666666666660603h-50Z" fill="#e6ab02"/><path d="M275,259.68h50v0.05333333333334167h-50Z" fill="#a6761d"/><path d="M275,259.73333333333335h50v0.01999999999998181h-50Z" fill="#d95f02"/><path d="M275,259.75333333333333h50v0.5h-50Z" fill="#e6ab02"/><path d="M275,260.25333333333333h50v0.01999999999998181h-50Z" fill="#7570b3"/><path d="M275,260.2733333333333h50v0.006666666666717447h-50Z" fill="#e7298a"/><path d="M275,260.28000000000003h50v0.00666666666660376h-50Z" fill="#66a61e"/><path d="M275,260.28666666666663h50v8.613333333333344h-50Z" fill="#e6ab02"/><path d="M275,268.9h50v0.020000000000038654h-50Z" fill="#a6761d"/><path d="M275,268.92h50v0.9666666666666401h-50Z" fill="#e7298a"/><path d="M275,269.88666666666666h50v0.10000000000002274h-50Z" fill="#66a61e"/><path d="M275,269.9866666666667h50v0.006666666666660603h-50Z" fill="#e6ab02"/><path d="M275,269.99333333333334h50v0.006666666666660603h-50Z" fill="#a6761d"/><path d="M275,270h50v0.013333333333321207h-50Z" fill="#666666"/><path d="M275,270.0133333333333h50v28.626666666666722h-50Z" fill="#7570b3"/><path d="M275,298.64000000000004h50v0.09333333333330529h-50Z" fill="#66a61e"/><path d="M275,298.73333333333335h50v0.6266666666666652h-50Z" fill="#e6ab02"/><path d="M275,299.36h50v0.5933333333333053h-50Z" fill="#a6761d"/><path d="M275,299.9533333333333h50v0.03333333333335986h-50Z" fill="#666666"/><path d="M275,299.9866666666667h50v0.013333333333321207h-50Z" fill="#d95f02"/><path d="M275,300h50v0h-50Z" fill="#7570b3"/><path d="M220.45454545454544,259.4266666666667h50v0.046666666666624224h-50Z" fill="#7570b3"/><path d="M220.45454545454544,259.4733333333333h50v0.04666666666668107h-50Z" fill="#e7298a"/><path d="M220.45454545454544,259.52h50v0.01333333333337805h-50Z" fill="#a6761d"/><path d="M220.45454545454544,259.53333333333336h50v0.01999999999998181h-50Z" fill="#1b9e77"/><path d="M220.45454545454544,259.55333333333334h50v0.22666666666663104h-50Z" fill="#7570b3"/><path d="M220.45454545454544,259.78h50v0.07333333333332348h-50Z" fill="#66a61e"/><path d="M220.45454545454544,259.8533333333333h50v0.006666666666717447h-50Z" fill="#e6ab02"/><path d="M220.45454545454544,259.86h50v0.01999999999998181h-50Z" fill="#666666"/><path d="M220.45454545454544,259.88h50v0.006666666666660603h-50Z" fill="#1b9e77"/><path d="M220.45454545454544,259.88666666666666h50v0.01333333333337805h-50Z" fill="#66a61e"/><path d="M220.45454545454544,259.90000000000003h50v0.01999999999998181h-50Z" fill="#e6ab02"/><path d="M220.45454545454544,259.92h50v0.006666666666660603h-50Z" fill="#d95f02"/><path d="M220.45454545454544,259.9266666666667h50v6.9266666666666765h-50Z" fill="#7570b3"/><path d="M220.45454545454544,266.85333333333335h50v2.953333333333319h-50Z" fill="#66a61e"/><path d="M220.45454545454544,269.8066666666667h50v0.013333333333321207h-50Z" fill="#e6ab02"/><path d="M220.45454545454544,269.82h50v0.01333333333337805h-50Z" fill="#666666"/><path d="M220.45454545454544,269.83333333333337h50v0.6933333333332712h-50Z" fill="#d95f02"/><path d="M220.45454545454544,270.52666666666664h50v0.37999999999999545h-50Z" fill="#7570b3"/><path d="M220.45454545454544,270.90666666666664h50v0.05333333333334167h-50Z" fill="#e6ab02"/><path d="M220.45454545454544,270.96h50v0.013333333333321207h-50Z" fill="#a6761d"/><path d="M220.45454545454544,270.9733333333333h50v0.03333333333335986h-50Z" fill="#666666"/><path d="M220.45454545454544,271.00666666666666h50v0.693333333333328h-50Z" fill="#d95f02"/><path d="M220.45454545454544,271.7h50v0.006666666666660603h-50Z" fill="#66a61e"/><path d="M220.45454545454544,271.70666666666665h50v0.020000000000038654h-50Z" fill="#e6ab02"/><path d="M220.45454545454544,271.7266666666667h50v0.013333333333321207h-50Z" fill="#66a61e"/><path d="M220.45454545454544,271.74h50v0.03333333333330302h-50Z" fill="#a6761d"/><path d="M220.45454545454544,271.7733333333333h50v0.053333333333398514h-50Z" fill="#1b9e77"/><path d="M220.45454545454544,271.8266666666667h50v0.07999999999998408h-50Z" fill="#d95f02"/><path d="M220.45454545454544,271.9066666666667h50v0.15999999999996817h-50Z" fill="#e6ab02"/><path d="M220.45454545454544,272.06666666666666h50v0.006666666666660603h-50Z" fill="#666666"/><path d="M220.45454545454544,272.0733333333333h50v0.006666666666660603h-50Z" fill="#d95f02"/><path d="M220.45454545454544,272.08h50v0.020000000000038654h-50Z" fill="#7570b3"/><path d="M220.45454545454544,272.1h50v0.00666666666660376h-50Z" fill="#66a61e"/><path d="M220.45454545454544,272.1066666666666h50v8.086666666666702h-50Z" fill="#e6ab02"/><path d="M220.45454545454544,280.1933333333333h50v0.026666666666699257h-50Z" fill="#a6761d"/><path d="M220.45454545454544,280.22h50v0.21999999999997044h-50Z" fill="#e7298a"/><path d="M220.45454545454544,280.44h50v0.11333333333334394h-50Z" fill="#66a61e"/><path d="M220.45454545454544,280.55333333333334h50v0.006666666666660603h-50Z" fill="#d95f02"/><path d="M220.45454545454544,280.56h50v18.066666666666663h-50Z" fill="#7570b3"/><path d="M220.45454545454544,298.62666666666667h50v0.006666666666660603h-50Z" fill="#e7298a"/><path d="M220.45454545454544,298.6333333333333h50v0.10000000000002274h-50Z" fill="#66a61e"/><path d="M220.45454545454544,298.73333333333335h50v0.4399999999999977h-50Z" fill="#e6ab02"/><path d="M220.45454545454544,299.17333333333335h50v0.8133333333333326h-50Z" fill="#a6761d"/><path d="M220.45454545454544,299.9866666666667h50v0.006666666666660603h-50Z" fill="#666666"/><path d="M220.45454545454544,299.99333333333334h50v0.006666666666660603h-50Z" fill="#d95f02"/><path d="M165.90909090909088,260.5h50v0.006666666666660603h-50Z" fill="#1b9e77"/><path d="M165.90909090909088,260.50666666666666h50v0.01333333333337805h-50Z" fill="#7570b3"/><path d="M165.90909090909088,260.52000000000004h50v0.026666666666642413h-50Z" fill="#e7298a"/><path d="M165.90909090909088,260.5466666666667h50v0.013333333333321207h-50Z" fill="#66a61e"/><path d="M165.90909090909088,260.56h50v0.006666666666660603h-50Z" fill="#e6ab02"/><path d="M165.90909090909088,260.56666666666666h50v0.006666666666660603h-50Z" fill="#666666"/><path d="M165.90909090909088,260.5733333333333h50v0.006666666666660603h-50Z" fill="#1b9e77"/><path d="M165.90909090909088,260.58h50v0.3133333333333326h-50Z" fill="#7570b3"/><path d="M165.90909090909088,260.8933333333333h50v0.07333333333338032h-50Z" fill="#66a61e"/><path d="M165.90909090909088,260.9666666666667h50v0.01999999999998181h-50Z" fill="#666666"/><path d="M165.90909090909088,260.9866666666667h50v0.006666666666660603h-50Z" fill="#e6ab02"/><path d="M165.90909090909088,260.99333333333334h50v0.013333333333321207h-50Z" fill="#1b9e77"/><path d="M165.90909090909088,261.00666666666666h50v8.893333333333317h-50Z" fill="#7570b3"/><path d="M165.90909090909088,269.9h50v1.5733333333333803h-50Z" fill="#66a61e"/><path d="M165.90909090909088,271.47333333333336h50v0.026666666666642413h-50Z" fill="#e6ab02"/><path d="M165.90909090909088,271.5h50v0.006666666666660603h-50Z" fill="#a6761d"/><path d="M165.90909090909088,271.50666666666666h50v0.646666666666647h-50Z" fill="#d95f02"/><path d="M165.90909090909088,272.1533333333333h50v1.1733333333333462h-50Z" fill="#7570b3"/><path d="M165.90909090909088,273.32666666666665h50v0.05333333333334167h-50Z" fill="#e6ab02"/><path d="M165.90909090909088,273.38h50v0.07999999999998408h-50Z" fill="#a6761d"/><path d="M165.90909090909088,273.46h50v0.040000000000020464h-50Z" fill="#666666"/><path d="M165.90909090909088,273.5h50v0.5466666666666811h-50Z" fill="#d95f02"/><path d="M165.90909090909088,274.0466666666667h50v0.026666666666642413h-50Z" fill="#e7298a"/><path d="M165.90909090909088,274.0733333333333h50v0.026666666666642413h-50Z" fill="#e6ab02"/><path d="M165.90909090909088,274.09999999999997h50v0.006666666666717447h-50Z" fill="#d95f02"/><path d="M165.90909090909088,274.1066666666667h50v0.013333333333321207h-50Z" fill="#66a61e"/><path d="M165.90909090909088,274.12h50v0.01999999999998181h-50Z" fill="#a6761d"/><path d="M165.90909090909088,274.14h50v0.01999999999998181h-50Z" fill="#d95f02"/><path d="M165.90909090909088,274.15999999999997h50v0.026666666666699257h-50Z" fill="#7570b3"/><path d="M165.90909090909088,274.18666666666667h50v0.006666666666660603h-50Z" fill="#e7298a"/><path d="M165.90909090909088,274.1933333333333h50v0.08666666666670153h-50Z" fill="#e6ab02"/><path d="M165.90909090909088,274.28000000000003h50v0.026666666666642413h-50Z" fill="#d95f02"/><path d="M165.90909090909088,274.3066666666667h50v0.006666666666660603h-50Z" fill="#e7298a"/><path d="M165.90909090909088,274.31333333333333h50v3.480000000000018h-50Z" fill="#e6ab02"/><path d="M165.90909090909088,277.79333333333335h50v0.006666666666660603h-50Z" fill="#a6761d"/><path d="M165.90909090909088,277.8h50v0.006666666666660603h-50Z" fill="#7570b3"/><path d="M165.90909090909088,277.8066666666667h50v0.37333333333333485h-50Z" fill="#e7298a"/><path d="M165.90909090909088,278.18h50v0.09333333333336213h-50Z" fill="#66a61e"/><path d="M165.90909090909088,278.27333333333337h50v0.00666666666660376h-50Z" fill="#666666"/><path d="M165.90909090909088,278.28h50v0.020000000000038654h-50Z" fill="#d95f02"/><path d="M165.90909090909088,278.3h50v20.50666666666666h-50Z" fill="#7570b3"/><path d="M165.90909090909088,298.8066666666667h50v0.05333333333334167h-50Z" fill="#66a61e"/><path d="M165.90909090909088,298.86h50v0.4399999999999977h-50Z" fill="#e6ab02"/><path d="M165.90909090909088,299.3h50v0.6800000000000068h-50Z" fill="#a6761d"/><path d="M165.90909090909088,299.98h50v0.013333333333321207h-50Z" fill="#1b9e77"/><path d="M165.90909090909088,299.99333333333334h50v0.006666666666660603h-50Z" fill="#d95f02"/><path d="M111.36363636363632,265.3666666666667h50v0.03333333333335986h-50Z" fill="#e7298a"/><path d="M111.36363636363632,265.40000000000003h50v0.07999999999998408h-50Z" fill="#e6ab02"/><path d="M111.36363636363632,265.48h50v0.2666666666666515h-50Z" fill="#7570b3"/><path d="M111.36363636363632,265.74666666666667h50v0.07333333333332348h-50Z" fill="#66a61e"/><path d="M111.36363636363632,265.82h50v0.006666666666660603h-50Z" fill="#e6ab02"/><path d="M111.36363636363632,265.82666666666665h50v0.026666666666642413h-50Z" fill="#666666"/><path d="M111.36363636363632,265.8533333333333h50v0.006666666666717447h-50Z" fill="#e6ab02"/><path d="M111.36363636363632,265.86h50v3.1066666666666265h-50Z" fill="#7570b3"/><path d="M111.36363636363632,268.96666666666664h50v0.013333333333321207h-50Z" fill="#e7298a"/><path d="M111.36363636363632,268.97999999999996h50v0.42000000000007276h-50Z" fill="#66a61e"/><path d="M111.36363636363632,269.40000000000003h50v0.2866666666666333h-50Z" fill="#d95f02"/><path d="M111.36363636363632,269.68666666666667h50v0.19999999999998863h-50Z" fill="#7570b3"/><path d="M111.36363636363632,269.88666666666666h50v0.040000000000020464h-50Z" fill="#e6ab02"/><path d="M111.36363636363632,269.9266666666667h50v0.006666666666660603h-50Z" fill="#a6761d"/><path d="M111.36363636363632,269.93333333333334h50v0.44666666666665833h-50Z" fill="#d95f02"/><path d="M111.36363636363632,270.38h50v0.03333333333335986h-50Z" fill="#e6ab02"/><path d="M111.36363636363632,270.41333333333336h50v0.013333333333321207h-50Z" fill="#1b9e77"/><path d="M111.36363636363632,270.4266666666667h50v0.013333333333321207h-50Z" fill="#66a61e"/><path d="M111.36363636363632,270.44h50v0.006666666666660603h-50Z" fill="#e6ab02"/><path d="M111.36363636363632,270.44666666666666h50v0.013333333333321207h-50Z" fill="#a6761d"/><path d="M111.36363636363632,270.46h50v0.006666666666660603h-50Z" fill="#666666"/><path d="M111.36363636363632,270.46666666666664h50v0.040000000000020464h-50Z" fill="#d95f02"/><path d="M111.36363636363632,270.50666666666666h50v0.006666666666660603h-50Z" fill="#7570b3"/><path d="M111.36363636363632,270.5133333333333h50v0.060000000000002274h-50Z" fill="#e6ab02"/><path d="M111.36363636363632,270.5733333333333h50v0.006666666666660603h-50Z" fill="#d95f02"/><path d="M111.36363636363632,270.58h50v10.673333333333346h-50Z" fill="#e6ab02"/><path d="M111.36363636363632,281.25333333333333h50v0.006666666666660603h-50Z" fill="#666666"/><path d="M111.36363636363632,281.26h50v0.013333333333321207h-50Z" fill="#1b9e77"/><path d="M111.36363636363632,281.2733333333333h50v0.006666666666660603h-50Z" fill="#7570b3"/><path d="M111.36363636363632,281.28h50v0.11333333333334394h-50Z" fill="#e7298a"/><path d="M111.36363636363632,281.3933333333333h50v0.1333333333333826h-50Z" fill="#66a61e"/><path d="M111.36363636363632,281.5266666666667h50v0.013333333333321207h-50Z" fill="#a6761d"/><path d="M111.36363636363632,281.54h50v16.620000000000005h-50Z" fill="#7570b3"/><path d="M111.36363636363632,298.16h50v0.006666666666660603h-50Z" fill="#66a61e"/><path d="M111.36363636363632,298.1666666666667h50v1.1599999999999682h-50Z" fill="#e6ab02"/><path d="M111.36363636363632,299.32666666666665h50v0.6666666666666856h-50Z" fill="#a6761d"/><path d="M111.36363636363632,299.99333333333334h50v0.006666666666660603h-50Z" fill="#d95f02"/><path d="M56.818181818181785,269.21999999999997h50v0.020000000000038654h-50Z" fill="#e7298a"/><path d="M56.818181818181785,269.24h50v0.006666666666660603h-50Z" fill="#d95f02"/><path d="M56.818181818181785,269.24666666666667h50v0.12000000000000455h-50Z" fill="#7570b3"/><path d="M56.818181818181785,269.3666666666667h50v0.05333333333334167h-50Z" fill="#66a61e"/><path d="M56.818181818181785,269.42h50v0.01999999999998181h-50Z" fill="#666666"/><path d="M56.818181818181785,269.44h50v0.006666666666660603h-50Z" fill="#7570b3"/><path d="M56.818181818181785,269.44666666666666h50v0.07333333333332348h-50Z" fill="#66a61e"/><path d="M56.818181818181785,269.52h50v0.10666666666668334h-50Z" fill="#e6ab02"/><path d="M56.818181818181785,269.62666666666667h50v0.006666666666660603h-50Z" fill="#a6761d"/><path d="M56.818181818181785,269.6333333333333h50v1.0266666666666993h-50Z" fill="#7570b3"/><path d="M56.818181818181785,270.66h50v0.006666666666660603h-50Z" fill="#e7298a"/><path d="M56.818181818181785,270.6666666666667h50v0.06666666666660603h-50Z" fill="#66a61e"/><path d="M56.818181818181785,270.7333333333333h50v0.026666666666699257h-50Z" fill="#e6ab02"/><path d="M56.818181818181785,270.76h50v0.26666666666670835h-50Z" fill="#d95f02"/><path d="M56.818181818181785,271.0266666666667h50v0.05333333333328483h-50Z" fill="#7570b3"/><path d="M56.818181818181785,271.08h50v0.026666666666699257h-50Z" fill="#666666"/><path d="M56.818181818181785,271.1066666666667h50v0.2466666666666697h-50Z" fill="#d95f02"/><path d="M56.818181818181785,271.35333333333335h50v0.026666666666642413h-50Z" fill="#e7298a"/><path d="M56.818181818181785,271.38h50v0.006666666666660603h-50Z" fill="#66a61e"/><path d="M56.818181818181785,271.38666666666666h50v0.01999999999998181h-50Z" fill="#e6ab02"/><path d="M56.818181818181785,271.40666666666664h50v0.006666666666717447h-50Z" fill="#d95f02"/><path d="M56.818181818181785,271.41333333333336h50v0.01999999999998181h-50Z" fill="#66a61e"/><path d="M56.818181818181785,271.43333333333334h50v0.7400000000000091h-50Z" fill="#666666"/><path d="M56.818181818181785,272.17333333333335h50v0.03333333333330302h-50Z" fill="#d95f02"/><path d="M56.818181818181785,272.20666666666665h50v0.006666666666717447h-50Z" fill="#7570b3"/><path d="M56.818181818181785,272.21333333333337h50v0.07999999999998408h-50Z" fill="#e6ab02"/><path d="M56.818181818181785,272.29333333333335h50v11.566666666666663h-50Z" fill="#e6ab02"/><path d="M56.818181818181785,283.86h50v0.006666666666660603h-50Z" fill="#a6761d"/><path d="M56.818181818181785,283.8666666666667h50v0.006666666666660603h-50Z" fill="#666666"/><path d="M56.818181818181785,283.87333333333333h50v0.5266666666666424h-50Z" fill="#e7298a"/><path d="M56.818181818181785,284.4h50v0.040000000000020464h-50Z" fill="#66a61e"/><path d="M56.818181818181785,284.44h50v14.740000000000009h-50Z" fill="#7570b3"/><path d="M56.818181818181785,299.18h50v0.14666666666664696h-50Z" fill="#e6ab02"/><path d="M56.818181818181785,299.32666666666665h50v0.6733333333333462h-50Z" fill="#a6761d"/><path d="M2.272727272727238,293.31333333333333h50v0.13999999999998636h-50Z" fill="#7570b3"/><path d="M2.272727272727238,293.4533333333333h50v0.006666666666660603h-50Z" fill="#66a61e"/><path d="M2.272727272727238,293.46h50v0.21333333333336668h-50Z" fill="#7570b3"/><path d="M2.272727272727238,293.67333333333335h50v0.09333333333330529h-50Z" fill="#66a61e"/><path d="M2.272727272727238,293.76666666666665h50v0.22000000000002728h-50Z" fill="#d95f02"/><path d="M2.272727272727238,293.9866666666667h50v0.01999999999998181h-50Z" fill="#7570b3"/><path d="M2.272727272727238,294.00666666666666h50v0.006666666666660603h-50Z" fill="#66a61e"/><path d="M2.272727272727238,294.0133333333333h50v0.013333333333321207h-50Z" fill="#666666"/><path d="M2.272727272727238,294.02666666666664h50v0.10666666666668334h-50Z" fill="#d95f02"/><path d="M2.272727272727238,294.1333333333333h50v0.006666666666660603h-50Z" fill="#e7298a"/><path d="M2.272727272727238,294.14h50v0.006666666666660603h-50Z" fill="#66a61e"/><path d="M2.272727272727238,294.14666666666665h50v0.006666666666660603h-50Z" fill="#a6761d"/><path d="M2.272727272727238,294.1533333333333h50v0.03333333333335986h-50Z" fill="#666666"/><path d="M2.272727272727238,294.18666666666667h50v0.026666666666642413h-50Z" fill="#d95f02"/><path d="M2.272727272727238,294.2133333333333h50v0.040000000000020464h-50Z" fill="#e6ab02"/><path d="M2.272727272727238,294.25333333333333h50v0.45333333333331893h-50Z" fill="#e6ab02"/><path d="M2.272727272727238,294.70666666666665h50v0.26666666666670835h-50Z" fill="#e7298a"/><path d="M2.272727272727238,294.97333333333336h50v0.013333333333321207h-50Z" fill="#66a61e"/><path d="M2.272727272727238,294.9866666666667h50v4.78666666666669h-50Z" fill="#7570b3"/><path d="M2.272727272727238,299.77333333333337h50v0.05999999999994543h-50Z" fill="#e6ab02"/><path d="M2.272727272727238,299.8333333333333h50v0.16666666666668561h-50Z" fill="#a6761d"/></g></g><path class="foreground" aria-hidden="true" d="" display="none"/></g></g></g></svg>